<svg width="128" height="128" viewBox="0 0 128 128" fill="none" xmlns="http://www.w3.org/2000/svg">
<rect width="128" height="128" fill="#4E4747"/>
<path d="M46.0243 79.0268L47.6155 77.8776C49.6193 76.6989 51.0337 76.1095 51.8588 76.1095C53.6858 76.1095 55.6601 77.7597 57.7818 81.06C59.0783 83.1228 59.7266 84.7729 59.7266 86.0106C59.7266 87.2482 59.3141 88.2795 58.489 89.1046C57.7228 89.9297 56.8093 90.6664 55.7485 91.3147C54.6877 91.963 53.6563 92.5818 52.6544 93.1711C51.7115 93.7605 49.7372 94.5266 46.7315 95.4696C43.7258 96.4125 40.8085 96.884 37.9797 96.884C35.2097 96.884 32.3809 96.5304 29.4931 95.8232C26.6642 95.057 23.7175 93.8194 20.6529 92.1103C17.6472 90.3423 14.9362 88.2206 12.5199 85.7454C10.1035 83.2112 8.09975 79.9992 6.50851 76.1095C4.97621 72.1609 4.21005 67.8881 4.21005 63.2912C4.21005 58.6943 4.97621 54.5394 6.50851 50.8265C8.04081 47.0547 9.98566 43.9606 12.3431 41.5443C14.7594 39.069 17.4998 37.0063 20.5644 35.3561C26.3401 32.1737 32.1451 30.5824 37.9797 30.5824C40.7496 30.5824 43.549 31.0244 46.3779 31.9084C49.2657 32.7335 51.4463 33.5881 52.9196 34.4721L55.0413 35.7097C56.1021 36.358 56.9272 36.8884 57.5165 37.301C59.0488 38.5386 59.815 39.953 59.815 41.5443C59.815 43.0766 59.1962 44.6973 57.9586 46.4064C55.6601 49.5889 53.5974 51.1801 51.7704 51.1801C50.7096 51.1801 49.2067 50.5318 47.2619 49.2353C44.7866 47.2315 41.4863 46.2296 37.3609 46.2296C33.5301 46.2296 29.7583 47.5556 26.0454 50.2077C24.2773 51.5043 22.804 53.3312 21.6253 55.6886C20.4466 58.046 19.8572 60.7275 19.8572 63.7332C19.8572 66.68 20.4466 69.332 21.6253 71.6894C22.804 74.0468 24.3068 75.9032 26.1338 77.2587C29.7288 79.8519 33.4712 81.1484 37.3609 81.1484C39.1878 81.1484 40.8969 80.9127 42.4882 80.4412C44.1384 79.9697 45.3171 79.4983 46.0243 79.0268ZM73.4034 31.1128L89.7578 31.2012C98.3033 31.2012 105.817 34.2953 112.3 40.4835C118.783 46.6127 122.025 54.1858 122.025 63.2028C122.025 72.1609 118.842 79.8519 112.477 86.2758C106.171 92.6997 98.5096 95.9116 89.4926 95.9116H73.315C69.72 95.9116 67.4804 95.1749 66.5964 93.7015C65.8892 92.4639 65.5356 90.578 65.5356 88.0438V38.8922C65.5356 37.4778 65.565 36.4464 65.624 35.7981C65.7419 35.1499 66.0365 34.3837 66.508 33.4997C67.3331 31.9084 69.6315 31.1128 73.4034 31.1128ZM89.7578 80.2644C94.0011 80.2644 97.8318 78.7026 101.25 75.5791C104.668 72.3966 106.377 68.4185 106.377 63.6448C106.377 58.8711 104.698 54.893 101.338 51.7105C98.0381 48.4691 94.1484 46.8484 89.6694 46.8484H81.1828V80.2644H89.7578Z" fill="#FFF7F5"/>
</svg>
